<svg width="93" height="93" viewBox="0 0 93 93" fill="none" xmlns="http://www.w3.org/2000/svg">
<path d="M20.3438 0C21.1145 0 21.8538 0.306193 22.3988 0.851221C22.9438 1.39625 23.25 2.13546 23.25 2.90625V5.8125H69.75V2.90625C69.75 2.13546 70.0562 1.39625 70.6012 0.851221C71.1462 0.306193 71.8855 0 72.6562 0C73.427 0 74.1663 0.306193 74.7113 0.851221C75.2563 1.39625 75.5625 2.13546 75.5625 2.90625V5.8125H81.375C84.4581 5.8125 87.415 7.03727 89.5951 9.21738C91.7752 11.3975 93 14.3544 93 17.4375V81.375C93 84.4581 91.7752 87.415 89.5951 89.5951C87.415 91.7752 84.4581 93 81.375 93H11.625C8.54186 93 5.58499 91.7752 3.40488 89.5951C1.22477 87.415 0 84.4581 0 81.375V17.4375C0 14.3544 1.22477 11.3975 3.40488 9.21738C5.58499 7.03727 8.54186 5.8125 11.625 5.8125H17.4375V2.90625C17.4375 2.13546 17.7437 1.39625 18.2887 0.851221C18.8337 0.306193 19.573 0 20.3438 0V0ZM5.8125 23.25V81.375C5.8125 82.9166 6.42489 84.395 7.51494 85.4851C8.605 86.5751 10.0834 87.1875 11.625 87.1875H81.375C82.9166 87.1875 84.395 86.5751 85.4851 85.4851C86.5751 84.395 87.1875 82.9166 87.1875 81.375V23.25H5.8125Z" fill="#6E9F84"/>
<path fill-rule="evenodd" clip-rule="evenodd" d="M55.7311 35.4496L55.0793 27.1981L58.07 26.9619L58.7218 35.2133L55.7311 35.4496ZM44.8905 39.3256L40.328 32.3437L42.8393 30.7026L47.4018 37.6846L44.8905 39.3256ZM67.0511 37.6846L71.6136 30.7026L74.1249 32.3437L69.5624 39.3256L67.0511 37.6846ZM84.8343 42.2553L77.0129 47.9678L75.2435 45.5452L83.0648 39.8327L84.8343 42.2553ZM36.0325 47.8846L29.5147 42.1721L31.492 39.9159L38.0099 45.6285L36.0325 47.8846ZM45.9034 46.6294C44.2296 47.88 42.9873 49.2534 42.254 50.5038C42.9607 50.7251 43.6521 50.9563 44.3254 51.1978C48.3661 52.6472 51.9074 54.5187 54.2408 56.973C59.631 55.2499 65.288 53.8744 71.1252 53.0167C68.7187 48.6244 65.9038 45.9705 63.0558 44.4992C60.0448 42.9437 56.8791 42.6487 53.8937 43.1575C50.8944 43.6686 48.0976 44.9899 45.9034 46.6294ZM73.7093 52.6728L74.2037 52.419C71.483 47.12 68.1023 43.7296 64.4328 41.8339C60.763 39.938 56.9221 39.5982 53.3897 40.2002C49.8711 40.7998 46.6389 42.3349 44.1077 44.2261C41.9894 45.8089 40.2597 47.7197 39.303 49.6582C36.437 48.9067 33.3903 48.2944 30.3022 47.7984C20.3493 46.1999 9.79793 45.7845 3.10547 45.8913L3.15336 48.8909C9.71381 48.7862 20.0847 49.1959 29.8265 50.7605C34.6977 51.5428 39.3697 52.6074 43.3126 54.0217C46.52 55.1722 49.1458 56.5196 51.008 58.0582C46.8029 59.537 42.778 61.2146 38.9771 63.0047L40.4454 61.5612C38.6873 59.7743 36.0738 58.5223 33.1789 57.6242C30.2556 56.7172 26.891 56.1248 23.4828 55.7519C16.6662 55.0062 9.50199 55.121 4.97036 55.4558L5.20064 58.4471C9.59471 58.1225 16.5706 58.0121 23.1655 58.7336C26.4631 59.0943 29.6222 59.6585 32.2975 60.4886C34.8382 61.2769 36.8107 62.2652 38.0748 63.4338C37.3932 63.761 36.7191 64.0916 36.0528 64.4253C33.6972 65.6046 31.4341 66.8227 29.275 68.0579C26.3356 65.5064 21.9011 64.456 17.7313 64.0912C12.892 63.6678 7.92797 64.1291 4.81064 64.6861L5.36255 67.6355C8.27927 67.1143 12.9719 66.6805 17.4919 67.0759C21.0937 67.391 24.3066 68.2095 26.498 69.6892C24.1964 71.0773 22.03 72.4746 20.0148 73.8508C19.1207 73.1432 18.0165 72.6862 16.8998 72.3837C15.5642 72.0218 14.0792 71.8459 12.6207 71.7821C9.70515 71.6544 6.70655 71.9673 4.81647 72.2962L5.35492 75.2479C7.08296 74.9473 9.85994 74.6593 12.5123 74.7754C13.8377 74.8334 15.0847 74.9905 16.1334 75.2747C16.6067 75.4029 17.0149 75.5504 17.3607 75.7123C11.7839 79.7311 7.60878 83.4415 5.25275 86.0465L7.53103 88.0003C11.7616 83.3227 22.6907 74.4399 37.4368 67.0575C52.1687 59.6821 70.5544 53.8832 89.7173 55.1734L89.9344 52.2202C84.4324 51.8497 79.0031 52.0419 73.7093 52.6728ZM45.4982 73.593C32.7471 79.7743 23.0552 87.1972 19.2192 91.0987L17.0242 89.0521C21.1463 84.8596 31.141 77.2469 44.1445 70.9432C57.1548 64.6363 73.344 59.5577 89.8274 60.636L89.6226 63.5893C73.876 62.5592 58.2426 67.4149 45.4982 73.593ZM38.8434 90.4164C41.0991 87.768 47.2771 82.6967 55.9902 78.6512C64.6739 74.6194 75.7401 71.6706 87.7806 73.0818L88.155 70.1422C75.3921 68.6462 63.7396 71.7783 54.6917 75.9792C45.6733 80.1664 39.1069 85.4795 36.5081 88.5307L38.8434 90.4164ZM70.719 85.4843C65.8721 87.3707 62.2501 89.8369 60.8878 91.1097L58.7816 88.9715C60.4792 87.3855 64.4544 84.7325 69.5864 82.7352C74.7355 80.7312 81.2089 79.3242 87.8672 80.4262L87.3638 83.3445C81.4358 82.3634 75.5487 83.6046 70.719 85.4843Z" fill="#6E9F84"/>
</svg>
