<svg width="82" height="89" viewBox="0 0 82 89" fill="none" xmlns="http://www.w3.org/2000/svg">
<path d="M56.3027 9.04324C56.3027 12.024 53.8925 14.4403 50.9193 14.4403C47.946 14.4403 45.5358 12.024 45.5358 9.04324C45.5358 6.06252 47.946 3.64617 50.9193 3.64617C53.8925 3.64617 56.3027 6.06252 56.3027 9.04324Z" fill="#6E9F84"/>
<path d="M81 44.8197C81 47.8004 78.5898 50.2168 75.6166 50.2168C72.6434 50.2168 70.2331 47.8004 70.2331 44.8197C70.2331 41.839 72.6434 39.4226 75.6166 39.4226C78.5898 39.4226 81 41.839 81 44.8197Z" fill="#6E9F84"/>
<path d="M72.3976 23.1758C72.3976 24.743 71.1304 26.0134 69.5671 26.0134C68.0039 26.0134 66.7366 24.743 66.7366 23.1758C66.7366 21.6086 68.0039 20.3382 69.5671 20.3382C71.1304 20.3382 72.3976 21.6086 72.3976 23.1758Z" fill="#6E9F84"/>
<path d="M66.7366 13.0493C66.7366 14.6165 65.4694 15.887 63.9062 15.887C62.3429 15.887 61.0757 14.6165 61.0757 13.0493C61.0757 11.4821 62.3429 10.2117 63.9062 10.2117C65.4694 10.2117 66.7366 11.4821 66.7366 13.0493Z" fill="#6E9F84"/>
<path d="M68.9566 35.9173C68.9566 37.4845 67.6894 38.755 66.1262 38.755C64.5629 38.755 63.2957 37.4845 63.2957 35.9173C63.2957 34.3501 64.5629 33.0797 66.1262 33.0797C67.6894 33.0797 68.9566 34.3501 68.9566 35.9173Z" fill="#6E9F84"/>
<path d="M67.1806 75.1157C67.1806 77.0055 65.6525 78.5375 63.7674 78.5375C61.8823 78.5375 60.3542 77.0055 60.3542 75.1157C60.3542 73.2258 61.8823 71.6938 63.7674 71.6938C65.6525 71.6938 67.1806 73.2258 67.1806 75.1157Z" fill="#6E9F84"/>
<path d="M76.8931 61.7064C76.8931 63.5963 75.3649 65.1283 73.4799 65.1283C71.5948 65.1283 70.0666 63.5963 70.0666 61.7064C70.0666 59.8166 71.5948 58.2846 73.4799 58.2846C75.3649 58.2846 76.8931 59.8166 76.8931 61.7064Z" fill="#6E9F84"/>
<path d="M54.5822 21.5344C54.5822 23.4242 53.0541 24.9563 51.169 24.9563C49.2839 24.9563 47.7558 23.4242 47.7558 21.5344C47.7558 19.6446 49.2839 18.1126 51.169 18.1126C53.0541 18.1126 54.5822 19.6446 54.5822 21.5344Z" fill="#6E9F84"/>
<path d="M52.4177 54.974C52.4177 57.294 50.5417 59.1748 48.2275 59.1748C45.9133 59.1748 44.0373 57.294 44.0373 54.974C44.0373 52.654 45.9133 50.7732 48.2275 50.7732C50.5417 50.7732 52.4177 52.654 52.4177 54.974Z" fill="#6E9F84"/>
<path d="M55.0262 45.4318C55.0262 46.8146 53.9081 47.9356 52.5288 47.9356C51.1494 47.9356 50.0313 46.8146 50.0313 45.4318C50.0313 44.0489 51.1494 42.928 52.5288 42.928C53.9081 42.928 55.0262 44.0489 55.0262 45.4318Z" fill="#6E9F84"/>
<path d="M63.9061 43.2062C63.9061 44.589 62.788 45.71 61.4086 45.71C60.0293 45.71 58.9112 44.589 58.9112 43.2062C58.9112 41.8233 60.0293 40.7024 61.4086 40.7024C62.788 40.7024 63.9061 41.8233 63.9061 43.2062Z" fill="#6E9F84"/>
<path d="M61.1312 50.7732C61.1312 52.156 60.013 53.277 58.6337 53.277C57.2544 53.277 56.1362 52.156 56.1362 50.7732C56.1362 49.3904 57.2544 48.2694 58.6337 48.2694C60.013 48.2694 61.1312 49.3904 61.1312 50.7732Z" fill="#6E9F84"/>
<path d="M68.2906 56.3928C68.2906 57.7756 67.1725 58.8966 65.7932 58.8966C64.4138 58.8966 63.2957 57.7756 63.2957 56.3928C63.2957 55.01 64.4138 53.889 65.7932 53.889C67.1725 53.889 68.2906 55.01 68.2906 56.3928Z" fill="#6E9F84"/>
<path d="M62.0191 63.9042C62.0191 65.287 60.901 66.408 59.5216 66.408C58.1423 66.408 57.0242 65.287 57.0242 63.9042C57.0242 62.5214 58.1423 61.4004 59.5216 61.4004C60.901 61.4004 62.0191 62.5214 62.0191 63.9042Z" fill="#6E9F84"/>
<path d="M57.8012 71.4156C57.8012 72.7984 56.683 73.9194 55.3037 73.9194C53.9244 73.9194 52.8062 72.7984 52.8062 71.4156C52.8062 70.0328 53.9244 68.9118 55.3037 68.9118C56.683 68.9118 57.8012 70.0328 57.8012 71.4156Z" fill="#6E9F84"/>
<path d="M49.0323 71.9442C49.0323 72.6356 48.4732 73.1961 47.7836 73.1961C47.0939 73.1961 46.5348 72.6356 46.5348 71.9442C46.5348 71.2528 47.0939 70.6923 47.7836 70.6923C48.4732 70.6923 49.0323 71.2528 49.0323 71.9442Z" fill="#6E9F84"/>
<path d="M53.1948 65.9907C53.1948 66.6821 52.6357 67.2426 51.946 67.2426C51.2564 67.2426 50.6973 66.6821 50.6973 65.9907C50.6973 65.2993 51.2564 64.7388 51.946 64.7388C52.6357 64.7388 53.1948 65.2993 53.1948 65.9907Z" fill="#6E9F84"/>
<path d="M55.1373 60.0372C55.1373 60.7286 54.5782 61.2891 53.8885 61.2891C53.1989 61.2891 52.6398 60.7286 52.6398 60.0372C52.6398 59.3458 53.1989 58.7853 53.8885 58.7853C54.5782 58.7853 55.1373 59.3458 55.1373 60.0372Z" fill="#6E9F84"/>
<path d="M59.9101 56.977C59.9101 57.6684 59.3511 58.2289 58.6614 58.2289C57.9717 58.2289 57.4127 57.6684 57.4127 56.977C57.4127 56.2856 57.9717 55.7251 58.6614 55.7251C59.3511 55.7251 59.9101 56.2856 59.9101 56.977Z" fill="#6E9F84"/>
<path d="M67.5136 63.2644C67.5136 63.9558 66.9545 64.5163 66.2648 64.5163C65.5752 64.5163 65.0161 63.9558 65.0161 63.2644C65.0161 62.5729 65.5752 62.0125 66.2648 62.0125C66.9545 62.0125 67.5136 62.5729 67.5136 63.2644Z" fill="#6E9F84"/>
<path d="M68.9011 68.884C68.9011 69.5754 68.342 70.1359 67.6524 70.1359C66.9627 70.1359 66.4036 69.5754 66.4036 68.884C66.4036 68.1926 66.9627 67.6321 67.6524 67.6321C68.342 67.6321 68.9011 68.1926 68.9011 68.884Z" fill="#6E9F84"/>
<path d="M72.7306 53.2492C72.7306 53.9406 72.1715 54.5011 71.4818 54.5011C70.7922 54.5011 70.2331 53.9406 70.2331 53.2492C70.2331 52.5578 70.7922 51.9973 71.4818 51.9973C72.1715 51.9973 72.7306 52.5578 72.7306 53.2492Z" fill="#6E9F84"/>
<path d="M66.9586 49.8551C66.9586 50.5465 66.3996 51.107 65.7099 51.107C65.0202 51.107 64.4612 50.5465 64.4612 49.8551C64.4612 49.1637 65.0202 48.6032 65.7099 48.6032C66.3996 48.6032 66.9586 49.1637 66.9586 49.8551Z" fill="#6E9F84"/>
<path d="M67.9021 44.7919C67.9021 45.4833 67.343 46.0438 66.6533 46.0438C65.9637 46.0438 65.4046 45.4833 65.4046 44.7919C65.4046 44.1005 65.9637 43.54 66.6533 43.54C67.343 43.54 67.9021 44.1005 67.9021 44.7919Z" fill="#6E9F84"/>
<path d="M47.5338 45.4039C47.5338 46.0953 46.9747 46.6558 46.2851 46.6558C45.5954 46.6558 45.0363 46.0953 45.0363 45.4039C45.0363 44.7125 45.5954 44.152 46.2851 44.152C46.9747 44.152 47.5338 44.7125 47.5338 45.4039Z" fill="#6E9F84"/>
<path d="M57.1352 40.5633C57.1352 41.2547 56.5761 41.8152 55.8865 41.8152C55.1968 41.8152 54.6377 41.2547 54.6377 40.5633C54.6377 39.8719 55.1968 39.3114 55.8865 39.3114C56.5761 39.3114 57.1352 39.8719 57.1352 40.5633Z" fill="#6E9F84"/>
<path d="M52.5288 32.8293C52.5288 33.5207 51.9697 34.0812 51.28 34.0812C50.5904 34.0812 50.0313 33.5207 50.0313 32.8293C50.0313 32.1379 50.5904 31.5774 51.28 31.5774C51.9697 31.5774 52.5288 32.1379 52.5288 32.8293Z" fill="#6E9F84"/>
<path d="M46.6457 16.4155C46.6457 17.1069 46.0867 17.6674 45.397 17.6674C44.7073 17.6674 44.1483 17.1069 44.1483 16.4155C44.1483 15.7241 44.7073 15.1636 45.397 15.1636C46.0867 15.1636 46.6457 15.7241 46.6457 16.4155Z" fill="#6E9F84"/>
<path d="M65.5711 19.5314C65.5711 20.2228 65.012 20.7833 64.3224 20.7833C63.6327 20.7833 63.0736 20.2228 63.0736 19.5314C63.0736 18.84 63.6327 18.2795 64.3224 18.2795C65.012 18.2795 65.5711 18.84 65.5711 19.5314Z" fill="#6E9F84"/>
<path d="M54.4157 28.2668C54.4157 28.9582 53.8567 29.5187 53.167 29.5187C52.4773 29.5187 51.9183 28.9582 51.9183 28.2668C51.9183 27.5754 52.4773 27.0149 53.167 27.0149C53.8567 27.0149 54.4157 27.5754 54.4157 28.2668Z" fill="#6E9F84"/>
<path d="M67.4581 29.0458C67.4581 29.7372 66.899 30.2977 66.2094 30.2977C65.5197 30.2977 64.9606 29.7372 64.9606 29.0458C64.9606 28.3544 65.5197 27.7939 66.2094 27.7939C66.899 27.7939 67.4581 28.3544 67.4581 29.0458Z" fill="#6E9F84"/>
<path d="M49.0323 64.1268C49.0323 65.5096 47.9141 66.6306 46.5348 66.6306C45.1555 66.6306 44.0373 65.5096 44.0373 64.1268C44.0373 62.744 45.1555 61.623 46.5348 61.623C47.9141 61.623 49.0323 62.744 49.0323 64.1268Z" fill="#6E9F84"/>
<path d="M59.7991 34.6933C59.7991 36.0761 58.681 37.197 57.3017 37.197C55.9223 37.197 54.8042 36.0761 54.8042 34.6933C54.8042 33.3104 55.9223 32.1895 57.3017 32.1895C58.681 32.1895 59.7991 33.3104 59.7991 34.6933Z" fill="#6E9F84"/>
<path d="M51.0858 38.9775C51.0858 40.3603 49.9677 41.4813 48.5883 41.4813C47.209 41.4813 46.0909 40.3603 46.0909 38.9775C46.0909 37.5947 47.209 36.4737 48.5883 36.4737C49.9677 36.4737 51.0858 37.5947 51.0858 38.9775Z" fill="#6E9F84"/>
<path d="M48.8658 29.0736C48.8658 30.4564 47.7477 31.5774 46.3683 31.5774C44.989 31.5774 43.8709 30.4564 43.8709 29.0736C43.8709 27.6908 44.989 26.5698 46.3683 26.5698C47.7477 26.5698 48.8658 27.6908 48.8658 29.0736Z" fill="#6E9F84"/>
<path d="M62.4076 26.848C62.4076 28.2308 61.2895 29.3518 59.9101 29.3518C58.5308 29.3518 57.4127 28.2308 57.4127 26.848C57.4127 25.4652 58.5308 24.3442 59.9101 24.3442C61.2895 24.3442 62.4076 25.4652 62.4076 26.848Z" fill="#6E9F84"/>
<path d="M77.6145 30.3533C77.6145 31.7361 76.4963 32.8571 75.117 32.8571C73.7377 32.8571 72.6195 31.7361 72.6195 30.3533C72.6195 28.9705 73.7377 27.8495 75.117 27.8495C76.4963 27.8495 77.6145 28.9705 77.6145 30.3533Z" fill="#6E9F84"/>
<path d="M60.2431 18.0847C60.2431 19.1449 59.361 20.0043 58.2729 20.0043C57.1848 20.0043 56.3027 19.1449 56.3027 18.0847C56.3027 17.0246 57.1848 16.1652 58.2729 16.1652C59.361 16.1652 60.2431 17.0246 60.2431 18.0847Z" fill="#6E9F84"/>
<path d="M56.3027 80.5406C56.3027 83.5213 53.8925 85.9376 50.9193 85.9376C47.946 85.9376 45.5358 83.5213 45.5358 80.5406C45.5358 77.5598 47.946 75.1435 50.9193 75.1435C53.8925 75.1435 56.3027 77.5598 56.3027 80.5406Z" fill="#6E9F84"/>
<path fill-rule="evenodd" clip-rule="evenodd" d="M22.7522 6.90828C24.1632 2.95108 28.1412 0.892802 32.0443 1.0043C36.1274 1.12094 40.2942 3.57006 42.0602 8.66676H42.4175V9.85948L42.7245 11.013L42.4175 11.0951V75.0132L42.4055 75.1044C41.1594 84.6102 33.5014 88.7584 27.0167 87.8867C23.7791 87.4514 20.755 85.7509 19.0458 82.7706C18.7118 82.1884 18.4318 81.5629 18.2118 80.8965L18.179 80.9045L18.1666 80.8388C15.1004 81.0368 12.0417 79.5539 10.0291 77.2445C7.86324 74.7591 6.80021 71.1973 8.16021 67.4679C6.08438 66.076 3.69249 63.8383 2.26357 60.9336C0.623094 57.5989 0.30257 53.4643 2.98788 48.9995C2.02693 47.7231 1.4688 46.2211 1.25362 44.6813C0.709279 40.7863 2.33036 36.3051 5.67544 33.9775C5.18255 31.6787 5.38555 29.5848 6.02094 27.7522C7.04962 24.7854 9.17489 22.5919 11.1237 21.2632C11.0426 20.989 10.9724 20.7158 10.9129 20.4439C10.3274 17.7681 10.7945 15.2901 11.957 13.2122C14.064 9.44602 18.3991 7.06307 22.7522 6.90828ZM5.09914 50.9699C3.25953 54.3553 3.60597 57.2931 4.78387 59.6875C5.88755 61.931 7.75875 63.7533 9.45652 64.9441C10.2517 63.7579 11.3065 62.5979 12.6426 61.4853L13.7 60.6048L15.4955 62.772L14.4382 63.6525C12.8504 64.9745 11.8144 66.2959 11.1864 67.5434C9.67554 70.5446 10.403 73.3914 12.1454 75.3909C13.6054 77.0662 15.6915 78.0511 17.6675 78.037C17.533 75.977 17.8855 73.6672 18.8049 71.1368C17.3195 70.064 16.3791 68.4641 15.9088 67.0189C15.6132 66.1104 15.4709 65.1705 15.531 64.3378C15.5846 63.5957 15.8383 62.5177 16.7828 61.9468L17.9599 61.2353L19.411 63.6478L18.3748 64.2742C18.3716 64.286 18.3683 64.2994 18.3649 64.3144C18.3522 64.372 18.3406 64.4472 18.3338 64.5411C18.3056 64.9323 18.371 65.5015 18.5804 66.1451C19.0065 67.4546 19.8963 68.6959 21.1171 69.2371C22.016 69.6356 23.279 69.7415 25.0258 68.9388L26.2754 68.3647L27.4462 70.9257L26.1967 71.4999C24.4425 72.3059 22.8251 72.5153 21.3917 72.2503C20.5585 74.5988 20.3313 76.5906 20.5042 78.2353L21.02 80.2558L20.9697 80.2687C21.1145 80.66 21.2865 81.0257 21.4819 81.3663C22.6821 83.4589 24.8594 84.7542 27.3902 85.0944C32.4232 85.771 38.5431 82.6153 39.6074 74.8269V10.2341C38.3625 5.82386 35.0778 3.90935 31.9643 3.82041C29.2788 3.74369 26.8395 4.99395 25.7076 7.15923C28.338 7.71633 30.8197 9.19414 32.6217 11.8021L33.4044 12.9349L31.0943 14.5391L30.3116 13.4063C28.6404 10.9875 26.2362 9.8695 23.7309 9.73192C19.9764 9.52573 16.1225 11.5256 14.4079 14.5904C13.5682 16.0913 13.2259 17.8665 13.6578 19.8402C14.0114 21.4564 14.8996 23.2697 16.5646 25.2017C17.3192 24.1322 18.339 23.2194 19.6635 22.6643C21.732 21.7973 24.2793 21.9122 27.2345 23.223L28.4914 23.7805L27.3544 26.3569L26.0974 25.7993C23.6275 24.7037 21.9084 24.7769 20.7475 25.2635C19.5712 25.7565 18.6996 26.7863 18.1596 28.1293C17.6171 29.4786 17.4623 31.0283 17.6457 32.3211C17.8414 33.7016 18.3464 34.3784 18.6894 34.5591L19.9062 35.2002L18.5988 37.694L17.3821 37.053C15.8242 36.2321 15.1013 34.3945 14.8635 32.7177C14.6519 31.2257 14.7664 29.529 15.2504 27.937C13.9705 26.5993 12.976 25.2565 12.2447 23.9228C10.8239 25.0014 9.38659 26.6257 8.67529 28.6772C8.15752 30.1705 8.00804 31.9296 8.56162 33.9542L9.21391 35.2411L9.03419 35.3327C9.51335 36.4986 10.2284 37.7561 11.246 39.0992L12.0774 40.1966L9.83955 41.9006L9.00817 40.8032C7.97568 39.4404 7.18767 38.1131 6.61537 36.8254C4.69058 38.5871 3.6559 41.5665 4.03658 44.2904C4.26121 45.8978 4.96967 47.3103 6.18131 48.2824C7.14496 49.0555 8.52076 49.6249 10.4291 49.7223C10.3827 47.1991 11.8086 44.7737 13.0197 43.3292L13.9041 42.2743L16.0553 44.087L15.1709 45.1419C14.0911 46.4298 13.142 48.2849 13.246 49.8424C13.2937 50.5556 13.5602 51.2344 14.2136 51.8503C14.8953 52.4929 16.0747 53.1362 18.0578 53.57L19.4007 53.8637L18.8017 56.6162L17.4588 56.3225C15.1684 55.8215 13.4607 55.0075 12.2886 53.9027C11.8454 53.4849 11.4863 53.0321 11.2061 52.5529C8.74157 52.5826 6.69881 52.013 5.09914 50.9699Z" fill="#6E9F84"/>
<path d="M37.2941 49.8551C41.1328 52.9339 45.4858 60.7772 32.1881 67.5208M32.9096 36.5015C36.3136 35.5742 42.6609 36.7074 40.8183 48.6589M38.0988 19.5592C39.7083 21.2655 42.5055 26.4641 40.8183 33.6083M51.3077 13.6335V21.5066L60.4374 26.8202L57.5237 34.6932M75.6165 30.4924L66.4591 36.5294L75.6165 44.5972M48.5605 55.0296L52.5842 45.6821L61.3531 43.3174M66.4591 56.3094L59.7159 64.7388L63.7396 74.8096L50.9469 81.403M56.3027 9.04324C56.3027 12.024 53.8925 14.4403 50.9193 14.4403C47.946 14.4403 45.5358 12.024 45.5358 9.04324C45.5358 6.06252 47.946 3.64617 50.9193 3.64617C53.8925 3.64617 56.3027 6.06252 56.3027 9.04324ZM81 44.8197C81 47.8004 78.5898 50.2168 75.6166 50.2168C72.6434 50.2168 70.2331 47.8004 70.2331 44.8197C70.2331 41.839 72.6434 39.4226 75.6166 39.4226C78.5898 39.4226 81 41.839 81 44.8197ZM72.3976 23.1758C72.3976 24.743 71.1304 26.0134 69.5671 26.0134C68.0039 26.0134 66.7366 24.743 66.7366 23.1758C66.7366 21.6086 68.0039 20.3382 69.5671 20.3382C71.1304 20.3382 72.3976 21.6086 72.3976 23.1758ZM66.7366 13.0493C66.7366 14.6165 65.4694 15.887 63.9062 15.887C62.3429 15.887 61.0757 14.6165 61.0757 13.0493C61.0757 11.4821 62.3429 10.2117 63.9062 10.2117C65.4694 10.2117 66.7366 11.4821 66.7366 13.0493ZM68.9566 35.9173C68.9566 37.4845 67.6894 38.755 66.1262 38.755C64.5629 38.755 63.2957 37.4845 63.2957 35.9173C63.2957 34.3501 64.5629 33.0797 66.1262 33.0797C67.6894 33.0797 68.9566 34.3501 68.9566 35.9173ZM67.1806 75.1157C67.1806 77.0055 65.6525 78.5375 63.7674 78.5375C61.8823 78.5375 60.3542 77.0055 60.3542 75.1157C60.3542 73.2258 61.8823 71.6938 63.7674 71.6938C65.6525 71.6938 67.1806 73.2258 67.1806 75.1157ZM76.8931 61.7064C76.8931 63.5963 75.3649 65.1283 73.4799 65.1283C71.5948 65.1283 70.0666 63.5963 70.0666 61.7064C70.0666 59.8166 71.5948 58.2846 73.4799 58.2846C75.3649 58.2846 76.8931 59.8166 76.8931 61.7064ZM54.5822 21.5344C54.5822 23.4242 53.0541 24.9563 51.169 24.9563C49.2839 24.9563 47.7558 23.4242 47.7558 21.5344C47.7558 19.6446 49.2839 18.1126 51.169 18.1126C53.0541 18.1126 54.5822 19.6446 54.5822 21.5344ZM52.4177 54.974C52.4177 57.294 50.5417 59.1748 48.2275 59.1748C45.9133 59.1748 44.0373 57.294 44.0373 54.974C44.0373 52.654 45.9133 50.7732 48.2275 50.7732C50.5417 50.7732 52.4177 52.654 52.4177 54.974ZM55.0262 45.4318C55.0262 46.8146 53.9081 47.9356 52.5288 47.9356C51.1494 47.9356 50.0313 46.8146 50.0313 45.4318C50.0313 44.0489 51.1494 42.928 52.5288 42.928C53.9081 42.928 55.0262 44.0489 55.0262 45.4318ZM63.9061 43.2062C63.9061 44.589 62.788 45.71 61.4086 45.71C60.0293 45.71 58.9112 44.589 58.9112 43.2062C58.9112 41.8233 60.0293 40.7024 61.4086 40.7024C62.788 40.7024 63.9061 41.8233 63.9061 43.2062ZM61.1312 50.7732C61.1312 52.156 60.013 53.277 58.6337 53.277C57.2544 53.277 56.1362 52.156 56.1362 50.7732C56.1362 49.3904 57.2544 48.2694 58.6337 48.2694C60.013 48.2694 61.1312 49.3904 61.1312 50.7732ZM68.2906 56.3928C68.2906 57.7756 67.1725 58.8966 65.7932 58.8966C64.4138 58.8966 63.2957 57.7756 63.2957 56.3928C63.2957 55.01 64.4138 53.889 65.7932 53.889C67.1725 53.889 68.2906 55.01 68.2906 56.3928ZM62.0191 63.9042C62.0191 65.287 60.901 66.408 59.5216 66.408C58.1423 66.408 57.0242 65.287 57.0242 63.9042C57.0242 62.5214 58.1423 61.4004 59.5216 61.4004C60.901 61.4004 62.0191 62.5214 62.0191 63.9042ZM57.8012 71.4156C57.8012 72.7984 56.683 73.9194 55.3037 73.9194C53.9244 73.9194 52.8062 72.7984 52.8062 71.4156C52.8062 70.0328 53.9244 68.9118 55.3037 68.9118C56.683 68.9118 57.8012 70.0328 57.8012 71.4156ZM49.0323 71.9442C49.0323 72.6356 48.4732 73.1961 47.7836 73.1961C47.0939 73.1961 46.5348 72.6356 46.5348 71.9442C46.5348 71.2528 47.0939 70.6923 47.7836 70.6923C48.4732 70.6923 49.0323 71.2528 49.0323 71.9442ZM53.1948 65.9907C53.1948 66.6821 52.6357 67.2426 51.946 67.2426C51.2564 67.2426 50.6973 66.6821 50.6973 65.9907C50.6973 65.2993 51.2564 64.7388 51.946 64.7388C52.6357 64.7388 53.1948 65.2993 53.1948 65.9907ZM55.1373 60.0372C55.1373 60.7286 54.5782 61.2891 53.8885 61.2891C53.1989 61.2891 52.6398 60.7286 52.6398 60.0372C52.6398 59.3458 53.1989 58.7853 53.8885 58.7853C54.5782 58.7853 55.1373 59.3458 55.1373 60.0372ZM59.9101 56.977C59.9101 57.6684 59.3511 58.2289 58.6614 58.2289C57.9717 58.2289 57.4127 57.6684 57.4127 56.977C57.4127 56.2856 57.9717 55.7251 58.6614 55.7251C59.3511 55.7251 59.9101 56.2856 59.9101 56.977ZM67.5136 63.2644C67.5136 63.9558 66.9545 64.5163 66.2648 64.5163C65.5752 64.5163 65.0161 63.9558 65.0161 63.2644C65.0161 62.573 65.5752 62.0125 66.2648 62.0125C66.9545 62.0125 67.5136 62.573 67.5136 63.2644ZM68.9011 68.884C68.9011 69.5754 68.342 70.1359 67.6524 70.1359C66.9627 70.1359 66.4036 69.5754 66.4036 68.884C66.4036 68.1926 66.9627 67.6321 67.6524 67.6321C68.342 67.6321 68.9011 68.1926 68.9011 68.884ZM72.7306 53.2492C72.7306 53.9406 72.1715 54.5011 71.4818 54.5011C70.7922 54.5011 70.2331 53.9406 70.2331 53.2492C70.2331 52.5578 70.7922 51.9973 71.4818 51.9973C72.1715 51.9973 72.7306 52.5578 72.7306 53.2492ZM66.9586 49.8551C66.9586 50.5465 66.3996 51.107 65.7099 51.107C65.0202 51.107 64.4612 50.5465 64.4612 49.8551C64.4612 49.1637 65.0202 48.6032 65.7099 48.6032C66.3996 48.6032 66.9586 49.1637 66.9586 49.8551ZM67.9021 44.7919C67.9021 45.4833 67.343 46.0438 66.6533 46.0438C65.9637 46.0438 65.4046 45.4833 65.4046 44.7919C65.4046 44.1005 65.9637 43.54 66.6533 43.54C67.343 43.54 67.9021 44.1005 67.9021 44.7919ZM47.5338 45.4039C47.5338 46.0953 46.9747 46.6558 46.2851 46.6558C45.5954 46.6558 45.0363 46.0953 45.0363 45.4039C45.0363 44.7125 45.5954 44.152 46.2851 44.152C46.9747 44.152 47.5338 44.7125 47.5338 45.4039ZM57.1352 40.5633C57.1352 41.2547 56.5761 41.8152 55.8865 41.8152C55.1968 41.8152 54.6377 41.2547 54.6377 40.5633C54.6377 39.8719 55.1968 39.3114 55.8865 39.3114C56.5761 39.3114 57.1352 39.8719 57.1352 40.5633ZM52.5288 32.8293C52.5288 33.5207 51.9697 34.0812 51.28 34.0812C50.5904 34.0812 50.0313 33.5207 50.0313 32.8293C50.0313 32.1379 50.5904 31.5774 51.28 31.5774C51.9697 31.5774 52.5288 32.1379 52.5288 32.8293ZM46.6457 16.4155C46.6457 17.1069 46.0867 17.6674 45.397 17.6674C44.7073 17.6674 44.1483 17.1069 44.1483 16.4155C44.1483 15.7241 44.7073 15.1636 45.397 15.1636C46.0867 15.1636 46.6457 15.7241 46.6457 16.4155ZM65.5711 19.5314C65.5711 20.2228 65.012 20.7833 64.3224 20.7833C63.6327 20.7833 63.0736 20.2228 63.0736 19.5314C63.0736 18.84 63.6327 18.2795 64.3224 18.2795C65.012 18.2795 65.5711 18.84 65.5711 19.5314ZM54.4157 28.2668C54.4157 28.9582 53.8567 29.5187 53.167 29.5187C52.4773 29.5187 51.9183 28.9582 51.9183 28.2668C51.9183 27.5754 52.4773 27.0149 53.167 27.0149C53.8567 27.0149 54.4157 27.5754 54.4157 28.2668ZM67.4581 29.0458C67.4581 29.7372 66.899 30.2977 66.2094 30.2977C65.5197 30.2977 64.9606 29.7372 64.9606 29.0458C64.9606 28.3544 65.5197 27.7939 66.2094 27.7939C66.899 27.7939 67.4581 28.3544 67.4581 29.0458ZM49.0323 64.1268C49.0323 65.5096 47.9141 66.6306 46.5348 66.6306C45.1555 66.6306 44.0373 65.5096 44.0373 64.1268C44.0373 62.744 45.1555 61.623 46.5348 61.623C47.9141 61.623 49.0323 62.744 49.0323 64.1268ZM59.7991 34.6933C59.7991 36.0761 58.681 37.197 57.3017 37.197C55.9223 37.197 54.8042 36.0761 54.8042 34.6933C54.8042 33.3104 55.9223 32.1895 57.3017 32.1895C58.681 32.1895 59.7991 33.3104 59.7991 34.6933ZM51.0858 38.9775C51.0858 40.3603 49.9676 41.4813 48.5883 41.4813C47.209 41.4813 46.0909 40.3603 46.0909 38.9775C46.0909 37.5947 47.209 36.4737 48.5883 36.4737C49.9676 36.4737 51.0858 37.5947 51.0858 38.9775ZM48.8658 29.0736C48.8658 30.4564 47.7477 31.5774 46.3683 31.5774C44.989 31.5774 43.8709 30.4564 43.8709 29.0736C43.8709 27.6908 44.989 26.5698 46.3683 26.5698C47.7477 26.5698 48.8658 27.6908 48.8658 29.0736ZM62.4076 26.848C62.4076 28.2308 61.2895 29.3518 59.9101 29.3518C58.5308 29.3518 57.4127 28.2308 57.4127 26.848C57.4127 25.4652 58.5308 24.3442 59.9101 24.3442C61.2895 24.3442 62.4076 25.4652 62.4076 26.848ZM77.6145 30.3533C77.6145 31.7361 76.4963 32.8571 75.117 32.8571C73.7377 32.8571 72.6195 31.7361 72.6195 30.3533C72.6195 28.9705 73.7377 27.8495 75.117 27.8495C76.4963 27.8495 77.6145 28.9705 77.6145 30.3533ZM60.2431 18.0847C60.2431 19.1449 59.361 20.0043 58.2729 20.0043C57.1848 20.0043 56.3027 19.1449 56.3027 18.0847C56.3027 17.0246 57.1848 16.1652 58.2729 16.1652C59.361 16.1652 60.2431 17.0246 60.2431 18.0847ZM56.3027 80.5406C56.3027 83.5213 53.8925 85.9376 50.9193 85.9376C47.946 85.9376 45.5358 83.5213 45.5358 80.5406C45.5358 77.5598 47.946 75.1435 50.9193 75.1435C53.8925 75.1435 56.3027 77.5598 56.3027 80.5406ZM32.0443 1.0043C28.1412 0.892802 24.1632 2.95108 22.7522 6.90828C18.3991 7.06307 14.064 9.44602 11.957 13.2122C10.7945 15.2901 10.3274 17.7681 10.9129 20.4439C10.9724 20.7158 11.0426 20.989 11.1237 21.2632C9.17489 22.5919 7.04962 24.7854 6.02094 27.7522C5.38555 29.5848 5.18255 31.6787 5.67544 33.9775C2.33036 36.3051 0.709279 40.7863 1.25362 44.6813C1.4688 46.2211 2.02693 47.7231 2.98788 48.9995C0.30257 53.4643 0.623094 57.5989 2.26357 60.9336C3.69249 63.8383 6.08438 66.076 8.16021 67.4679C6.80021 71.1972 7.86324 74.7591 10.0291 77.2445C12.0417 79.5539 15.1004 81.0368 18.1666 80.8388L18.179 80.9045L18.2118 80.8965C18.4318 81.5629 18.7118 82.1884 19.0458 82.7706C20.755 85.7509 23.7791 87.4514 27.0167 87.8867C33.5014 88.7584 41.1594 84.6102 42.4055 75.1044L42.4175 75.0132V11.0951L42.7245 11.013L42.4175 9.85948V8.66676H42.0602C40.2942 3.57006 36.1274 1.12094 32.0443 1.0043ZM4.78387 59.6875C3.60597 57.2931 3.25953 54.3553 5.09914 50.9699C6.69881 52.013 8.74157 52.5826 11.2061 52.5529C11.4863 53.0321 11.8454 53.4849 12.2886 53.9027C13.4607 55.0075 15.1684 55.8215 17.4588 56.3225L18.8017 56.6162L19.4007 53.8637L18.0578 53.57C16.0747 53.1362 14.8953 52.4929 14.2136 51.8503C13.5602 51.2344 13.2937 50.5556 13.246 49.8424C13.142 48.2849 14.0911 46.4298 15.1709 45.1419L16.0553 44.087L13.9041 42.2743L13.0197 43.3292C11.8086 44.7737 10.3827 47.1991 10.4291 49.7223C8.52076 49.6249 7.14496 49.0555 6.18131 48.2824C4.96967 47.3103 4.26121 45.8978 4.03658 44.2904C3.6559 41.5665 4.69058 38.5871 6.61537 36.8254C7.18767 38.1131 7.97568 39.4404 9.00817 40.8032L9.83955 41.9006L12.0774 40.1966L11.246 39.0992C10.2284 37.7561 9.51335 36.4986 9.03419 35.3327L9.21391 35.2411L8.56162 33.9542C8.00804 31.9296 8.15752 30.1705 8.67529 28.6772C9.38659 26.6257 10.8239 25.0014 12.2447 23.9228C12.976 25.2565 13.9705 26.5994 15.2504 27.937C14.7664 29.529 14.6519 31.2257 14.8635 32.7177C15.1013 34.3945 15.8242 36.2321 17.3821 37.053L18.5988 37.694L19.9062 35.2002L18.6894 34.5591C18.3464 34.3784 17.8414 33.7016 17.6457 32.3211C17.4623 31.0283 17.6171 29.4786 18.1596 28.1293C18.6996 26.7863 19.5712 25.7565 20.7475 25.2635C21.9084 24.7769 23.6275 24.7037 26.0974 25.7993L27.3544 26.3569L28.4914 23.7805L27.2345 23.223C24.2793 21.9122 21.732 21.7972 19.6635 22.6643C18.339 23.2194 17.3192 24.1322 16.5646 25.2017C14.8996 23.2697 14.0114 21.4564 13.6578 19.8402C13.2259 17.8665 13.5682 16.0913 14.4079 14.5904C16.1225 11.5256 19.9764 9.52573 23.7309 9.73192C26.2362 9.8695 28.6404 10.9875 30.3116 13.4063L31.0943 14.5391L33.4044 12.9349L32.6217 11.8021C30.8197 9.19414 28.338 7.71633 25.7076 7.15923C26.8395 4.99395 29.2788 3.74369 31.9643 3.82041C35.0778 3.90935 38.3625 5.82386 39.6074 10.2341V74.8269C38.5431 82.6153 32.4232 85.771 27.3902 85.0944C24.8594 84.7542 22.6821 83.4589 21.4819 81.3663C21.2865 81.0257 21.1145 80.66 20.9697 80.2687L21.02 80.2558L20.5042 78.2353C20.3313 76.5906 20.5585 74.5988 21.3917 72.2503C22.8251 72.5153 24.4425 72.3059 26.1967 71.4999L27.4462 70.9257L26.2754 68.3647L25.0258 68.9388C23.279 69.7415 22.016 69.6356 21.1171 69.2371C19.8963 68.6959 19.0065 67.4546 18.5804 66.1451C18.371 65.5015 18.3056 64.9323 18.3338 64.5411C18.3406 64.4472 18.3522 64.372 18.3649 64.3144C18.3683 64.2994 18.3716 64.286 18.3748 64.2742L19.411 63.6478L17.9599 61.2353L16.7828 61.9468C15.8383 62.5177 15.5846 63.5957 15.531 64.3378C15.4709 65.1705 15.6132 66.1104 15.9088 67.0189C16.3791 68.4641 17.3195 70.064 18.8049 71.1368C17.8855 73.6672 17.533 75.977 17.6675 78.037C15.6915 78.0511 13.6054 77.0662 12.1454 75.3909C10.403 73.3914 9.67554 70.5446 11.1864 67.5434C11.8144 66.2959 12.8504 64.9745 14.4382 63.6525L15.4955 62.772L13.7 60.6048L12.6426 61.4853C11.3065 62.5979 10.2517 63.7579 9.45652 64.9441C7.75875 63.7533 5.88755 61.931 4.78387 59.6875Z" stroke="#6E9F84" stroke-width="2"/>
</svg>
