<svg width="207" height="40" viewBox="0 0 207 40" fill="none" xmlns="http://www.w3.org/2000/svg">
<path d="M16.3955 24C-5.56733 9.63329 27.676 -14.6111 35 11.7282C29.1049 9.83242 17.1308 9.63273 16.3955 24Z" fill="#05612E"/>
<path d="M27.1401 26.4399C23.3348 54.7889 -14.2752 30.3275 7.89654 14.8322C7.43424 20.8487 15.6905 32.1619 27.1401 26.4399Z" fill="#10B401"/>
<path d="M22.9233 15.4521C47.4907 4.3368 49.019 45.9214 24.7989 37.8472C29.9443 34.695 32.8135 21.1542 22.9233 15.4521Z" fill="#F0B611"/>
<path d="M22.4175 18.7078C21.0925 19.829 18.7483 22.744 19.9714 25.4347C21.2964 24.5174 24.2521 22.8663 25.4752 23.6001C24.6598 22.8867 22.9067 20.9094 22.4175 18.7078Z" fill="#10B401"/>
<path d="M84.5684 8.81641L76.9219 31H72.2988L81.9316 5.40625H84.8848L84.5684 8.81641ZM90.9668 31L83.3027 8.81641L82.9688 5.40625H85.9395L95.6074 31H90.9668ZM90.5977 21.5078V25.0059H76.6758V21.5078H90.5977ZM110.232 11.9805H114.082V30.4727C114.082 32.1836 113.719 33.6367 112.992 34.832C112.266 36.0273 111.252 36.9355 109.951 37.5566C108.65 38.1895 107.145 38.5059 105.434 38.5059C104.707 38.5059 103.898 38.4004 103.008 38.1895C102.129 37.9785 101.273 37.6387 100.441 37.1699C99.6211 36.7129 98.9355 36.1094 98.3848 35.3594L100.371 32.8633C101.051 33.6719 101.801 34.2637 102.621 34.6387C103.441 35.0137 104.303 35.2012 105.205 35.2012C106.178 35.2012 107.004 35.0195 107.684 34.6562C108.375 34.3047 108.908 33.7832 109.283 33.0918C109.658 32.4004 109.846 31.5566 109.846 30.5605V16.2871L110.232 11.9805ZM97.3125 21.7012V21.332C97.3125 19.8906 97.4883 18.5781 97.8398 17.3945C98.1914 16.1992 98.6953 15.1738 99.3516 14.3184C100.008 13.4512 100.805 12.7891 101.742 12.332C102.68 11.8633 103.74 11.6289 104.924 11.6289C106.154 11.6289 107.203 11.8516 108.07 12.2969C108.949 12.7422 109.682 13.3809 110.268 14.2129C110.854 15.0332 111.311 16.0176 111.639 17.166C111.979 18.3027 112.23 19.5684 112.395 20.9629V22.1406C112.242 23.5 111.984 24.7422 111.621 25.8672C111.258 26.9922 110.777 27.9648 110.18 28.7852C109.582 29.6055 108.844 30.2383 107.965 30.6836C107.098 31.1289 106.072 31.3516 104.889 31.3516C103.729 31.3516 102.68 31.1113 101.742 30.6309C100.816 30.1504 100.02 29.4766 99.3516 28.6094C98.6953 27.7422 98.1914 26.7227 97.8398 25.5508C97.4883 24.3672 97.3125 23.084 97.3125 21.7012ZM101.549 21.332V21.7012C101.549 22.5684 101.631 23.377 101.795 24.127C101.971 24.877 102.234 25.5391 102.586 26.1133C102.949 26.6758 103.406 27.1211 103.957 27.4492C104.52 27.7656 105.182 27.9238 105.943 27.9238C106.939 27.9238 107.754 27.7129 108.387 27.291C109.031 26.8691 109.523 26.3008 109.863 25.5859C110.215 24.8594 110.461 24.0508 110.602 23.1602V19.9785C110.531 19.2871 110.385 18.6426 110.162 18.0449C109.951 17.4473 109.664 16.9258 109.301 16.4805C108.938 16.0234 108.48 15.6719 107.93 15.4258C107.379 15.168 106.729 15.0391 105.979 15.0391C105.217 15.0391 104.555 15.2031 103.992 15.5312C103.43 15.8594 102.967 16.3105 102.604 16.8848C102.252 17.459 101.988 18.127 101.812 18.8887C101.637 19.6504 101.549 20.4648 101.549 21.332ZM122.73 15.6016V31H118.494V11.9805H122.537L122.73 15.6016ZM128.549 11.8574L128.514 15.7949C128.256 15.748 127.975 15.7129 127.67 15.6895C127.377 15.666 127.084 15.6543 126.791 15.6543C126.064 15.6543 125.426 15.7598 124.875 15.9707C124.324 16.1699 123.861 16.4629 123.486 16.8496C123.123 17.2246 122.842 17.6816 122.643 18.2207C122.443 18.7598 122.326 19.3633 122.291 20.0312L121.324 20.1016C121.324 18.9062 121.441 17.7988 121.676 16.7793C121.91 15.7598 122.262 14.8633 122.73 14.0898C123.211 13.3164 123.809 12.7129 124.523 12.2793C125.25 11.8457 126.088 11.6289 127.037 11.6289C127.295 11.6289 127.57 11.6523 127.863 11.6992C128.168 11.7461 128.396 11.7988 128.549 11.8574ZM129.938 21.7012V21.2969C129.938 19.9258 130.137 18.6543 130.535 17.4824C130.934 16.2988 131.508 15.2734 132.258 14.4062C133.02 13.5273 133.945 12.8477 135.035 12.3672C136.137 11.875 137.379 11.6289 138.762 11.6289C140.156 11.6289 141.398 11.875 142.488 12.3672C143.59 12.8477 144.521 13.5273 145.283 14.4062C146.045 15.2734 146.625 16.2988 147.023 17.4824C147.422 18.6543 147.621 19.9258 147.621 21.2969V21.7012C147.621 23.0723 147.422 24.3438 147.023 25.5156C146.625 26.6875 146.045 27.7129 145.283 28.5918C144.521 29.459 143.596 30.1387 142.506 30.6309C141.416 31.1113 140.18 31.3516 138.797 31.3516C137.402 31.3516 136.154 31.1113 135.053 30.6309C133.963 30.1387 133.037 29.459 132.275 28.5918C131.514 27.7129 130.934 26.6875 130.535 25.5156C130.137 24.3438 129.938 23.0723 129.938 21.7012ZM134.174 21.2969V21.7012C134.174 22.5566 134.262 23.3652 134.438 24.127C134.613 24.8887 134.889 25.5566 135.264 26.1309C135.639 26.7051 136.119 27.1562 136.705 27.4844C137.291 27.8125 137.988 27.9766 138.797 27.9766C139.582 27.9766 140.262 27.8125 140.836 27.4844C141.422 27.1562 141.902 26.7051 142.277 26.1309C142.652 25.5566 142.928 24.8887 143.104 24.127C143.291 23.3652 143.385 22.5566 143.385 21.7012V21.2969C143.385 20.4531 143.291 19.6562 143.104 18.9062C142.928 18.1445 142.646 17.4707 142.26 16.8848C141.885 16.2988 141.404 15.8418 140.818 15.5137C140.244 15.1738 139.559 15.0039 138.762 15.0039C137.965 15.0039 137.273 15.1738 136.688 15.5137C136.113 15.8418 135.639 16.2988 135.264 16.8848C134.889 17.4707 134.613 18.1445 134.438 18.9062C134.262 19.6562 134.174 20.4531 134.174 21.2969ZM158.941 27.9766C159.633 27.9766 160.254 27.8418 160.805 27.5723C161.367 27.291 161.818 26.9043 162.158 26.4121C162.51 25.9199 162.703 25.3516 162.738 24.707H166.729C166.705 25.9375 166.342 27.0566 165.639 28.0645C164.936 29.0723 164.004 29.875 162.844 30.4727C161.684 31.0586 160.4 31.3516 158.994 31.3516C157.541 31.3516 156.275 31.1055 155.197 30.6133C154.119 30.1094 153.223 29.418 152.508 28.5391C151.793 27.6602 151.254 26.6465 150.891 25.498C150.539 24.3496 150.363 23.1191 150.363 21.8066V21.1914C150.363 19.8789 150.539 18.6484 150.891 17.5C151.254 16.3398 151.793 15.3203 152.508 14.4414C153.223 13.5625 154.119 12.877 155.197 12.3848C156.275 11.8809 157.535 11.6289 158.977 11.6289C160.5 11.6289 161.836 11.9336 162.984 12.543C164.133 13.1406 165.035 13.9785 165.691 15.0566C166.359 16.123 166.705 17.3652 166.729 18.7832H162.738C162.703 18.0801 162.527 17.4473 162.211 16.8848C161.906 16.3105 161.473 15.8535 160.91 15.5137C160.359 15.1738 159.697 15.0039 158.924 15.0039C158.068 15.0039 157.359 15.1797 156.797 15.5312C156.234 15.8711 155.795 16.3398 155.479 16.9375C155.162 17.5234 154.934 18.1855 154.793 18.9238C154.664 19.6504 154.6 20.4062 154.6 21.1914V21.8066C154.6 22.5918 154.664 23.3535 154.793 24.0918C154.922 24.8301 155.145 25.4922 155.461 26.0781C155.789 26.6523 156.234 27.1152 156.797 27.4668C157.359 27.8066 158.074 27.9766 158.941 27.9766ZM174.516 11.9805V31H170.262V11.9805H174.516ZM169.98 6.98828C169.98 6.34375 170.191 5.81055 170.613 5.38867C171.047 4.95508 171.645 4.73828 172.406 4.73828C173.156 4.73828 173.748 4.95508 174.182 5.38867C174.615 5.81055 174.832 6.34375 174.832 6.98828C174.832 7.62109 174.615 8.14844 174.182 8.57031C173.748 8.99219 173.156 9.20312 172.406 9.20312C171.645 9.20312 171.047 8.99219 170.613 8.57031C170.191 8.14844 169.98 7.62109 169.98 6.98828ZM189.826 25.8496C189.826 25.4277 189.721 25.0469 189.51 24.707C189.299 24.3555 188.895 24.0391 188.297 23.7578C187.711 23.4766 186.844 23.2188 185.695 22.9844C184.688 22.7617 183.762 22.498 182.918 22.1934C182.086 21.877 181.371 21.4961 180.773 21.0508C180.176 20.6055 179.713 20.0781 179.385 19.4688C179.057 18.8594 178.893 18.1562 178.893 17.3594C178.893 16.5859 179.062 15.8535 179.402 15.1621C179.742 14.4707 180.229 13.8613 180.861 13.334C181.494 12.8066 182.262 12.3906 183.164 12.0859C184.078 11.7813 185.098 11.6289 186.223 11.6289C187.816 11.6289 189.182 11.8984 190.318 12.4375C191.467 12.9648 192.346 13.6855 192.955 14.5996C193.564 15.502 193.869 16.5215 193.869 17.6582H189.633C189.633 17.1543 189.504 16.6855 189.246 16.252C189 15.8066 188.625 15.4492 188.121 15.1797C187.617 14.8984 186.984 14.7578 186.223 14.7578C185.496 14.7578 184.893 14.875 184.412 15.1094C183.943 15.332 183.592 15.625 183.357 15.9883C183.135 16.3516 183.023 16.75 183.023 17.1836C183.023 17.5 183.082 17.7871 183.199 18.0449C183.328 18.291 183.539 18.5195 183.832 18.7305C184.125 18.9297 184.523 19.1172 185.027 19.293C185.543 19.4688 186.188 19.6387 186.961 19.8027C188.414 20.1074 189.662 20.5 190.705 20.9805C191.76 21.4492 192.568 22.0586 193.131 22.8086C193.693 23.5469 193.975 24.4844 193.975 25.6211C193.975 26.4648 193.793 27.2383 193.43 27.9414C193.078 28.6328 192.562 29.2363 191.883 29.752C191.203 30.2559 190.389 30.6484 189.439 30.9297C188.502 31.2109 187.447 31.3516 186.275 31.3516C184.553 31.3516 183.094 31.0469 181.898 30.4375C180.703 29.8164 179.795 29.0254 179.174 28.0645C178.564 27.0918 178.26 26.084 178.26 25.041H182.355C182.402 25.8262 182.619 26.4531 183.006 26.9219C183.404 27.3789 183.896 27.7129 184.482 27.9238C185.08 28.123 185.695 28.2227 186.328 28.2227C187.09 28.2227 187.729 28.123 188.244 27.9238C188.76 27.7129 189.152 27.4316 189.422 27.0801C189.691 26.7168 189.826 26.3066 189.826 25.8496ZM206.402 11.9805V15.0742H195.68V11.9805H206.402ZM198.773 7.32227H203.01V25.7441C203.01 26.3301 203.092 26.7812 203.256 27.0977C203.432 27.4023 203.672 27.6074 203.977 27.7129C204.281 27.8184 204.639 27.8711 205.049 27.8711C205.342 27.8711 205.623 27.8535 205.893 27.8184C206.162 27.7832 206.379 27.748 206.543 27.7129L206.561 30.9473C206.209 31.0527 205.799 31.1465 205.33 31.2285C204.873 31.3105 204.346 31.3516 203.748 31.3516C202.775 31.3516 201.914 31.1816 201.164 30.8418C200.414 30.4902 199.828 29.9219 199.406 29.1367C198.984 28.3516 198.773 27.3086 198.773 26.0078V7.32227Z" fill="#05612E"/>
</svg>
