<svg width="67" height="95" viewBox="0 0 67 95" fill="none" xmlns="http://www.w3.org/2000/svg">
<path fill-rule="evenodd" clip-rule="evenodd" d="M32.5286 32.6515C37.6996 30.4753 46.1399 23.6205 39.0173 13.3533C37.9168 11.7922 36.8247 7.22014 41.2598 1.42087C29.8609 0.32998 14.4742 15.6191 28.5306 29.8578L28.0407 29.5999L29.5299 31.8336C29.2529 44.0204 30.135 46.5686 31.4001 50.223C32.4024 53.118 33.6449 56.7073 34.742 66.3328C33.8648 65.1367 30.9895 61.7734 26.3383 57.6206C26.9926 52.0029 25.2077 41.5294 12.9015 42.5061C10.9986 42.6715 6.49802 41.3147 3.71823 34.5638C-3.23174 44.2433 2.97376 66.5803 24.3178 59.1351L24.7297 58.8777C27.4523 60.5379 32.7281 65.2447 34.9903 72.7859L34.742 78.9908H34.9903C36.314 78.5772 39.16 78.0973 39.9542 79.4872C40.1197 77.9153 40.4506 74.1261 40.4506 71.5449C40.6491 71.1478 45.3318 64.4299 47.6482 61.1207L47.2312 60.9122C73.8255 55.1795 68.1354 27.9449 54.8182 21.5642C55.4648 30.7505 50.9952 34.9808 48.6796 35.9477C35.3291 41.6349 39.4358 52.5569 43.382 58.9876L42.6843 58.6387L44.1735 61.1207L39.9542 68.0701C38.4408 60.4037 36.5997 56.3861 35.0638 53.0347C32.8207 48.1401 31.2288 44.6665 32.2601 33.3228L32.5286 32.6515ZM52.612 90.9042C55.5903 90.7056 56.5004 93.1379 56.5831 94.3789H13.149C13.5461 90.6063 17.451 90.8214 19.3538 91.4005C19.1553 89.0178 20.9257 88.2567 21.8358 88.174C22.8286 83.2101 26.386 84.1201 28.0407 85.1956C29.4306 82.6144 31.9291 83.2928 33.0046 83.9547C36.1815 79.1893 39.1267 82.1346 40.2022 84.203C42.5849 82.0189 44.5043 83.7892 45.1661 84.9475C48.8137 84.3395 48.9868 86.5443 49.0626 87.5091C49.0796 87.726 49.0917 87.8802 49.1373 87.9258C52.3142 87.1316 52.7775 89.5805 52.612 90.9042Z" fill="#6E9F84"/>
<path d="M32.5286 32.6515L32.3346 32.1907L32.1419 32.2717L32.0643 32.4659L32.5286 32.6515ZM39.0173 13.3533L39.4282 13.0683L39.426 13.0652L39.0173 13.3533ZM41.2598 1.42087L41.657 1.72462L42.2043 1.00898L41.3075 0.923148L41.2598 1.42087ZM28.5306 29.8578L28.2978 30.3002L28.8865 29.5065L28.5306 29.8578ZM28.0407 29.5999L28.2736 29.1574L27.6247 29.8772L28.0407 29.5999ZM29.5299 31.8336L30.0297 31.845L30.0333 31.6874L29.9459 31.5563L29.5299 31.8336ZM31.4001 50.223L31.8726 50.0594L31.4001 50.223ZM34.742 66.3328L34.3387 66.6285L35.4519 68.1464L35.2387 66.2762L34.742 66.3328ZM26.3383 57.6206L25.8416 57.5627L25.8116 57.8206L26.0053 57.9935L26.3383 57.6206ZM12.9015 42.5061L12.8619 42.0076L12.8581 42.008L12.9015 42.5061ZM3.71823 34.5638L4.18057 34.3734L3.83754 33.5403L3.31208 34.2722L3.71823 34.5638ZM24.3178 59.1351L24.4824 59.6072L24.5353 59.5888L24.5827 59.5592L24.3178 59.1351ZM24.7297 58.8777L24.99 58.4508L24.7265 58.2902L24.4648 58.4537L24.7297 58.8777ZM34.9903 72.7859L35.4899 72.8058L35.4932 72.7223L35.4692 72.6422L34.9903 72.7859ZM34.742 78.9908L34.2424 78.9708L34.2215 79.4908H34.742V78.9908ZM34.9903 78.9908V79.4908H35.0666L35.1394 79.4681L34.9903 78.9908ZM39.9542 79.4872L39.5201 79.7353L40.2892 81.0812L40.4514 79.5396L39.9542 79.4872ZM40.4506 71.5449L40.0034 71.3213L39.9506 71.4268V71.5449H40.4506ZM47.6482 61.1207L48.0579 61.4074L48.3902 60.9326L47.8719 60.6735L47.6482 61.1207ZM47.2312 60.9122L47.1258 60.4234L45.7352 60.7232L47.0076 61.3594L47.2312 60.9122ZM54.8182 21.5642L55.0343 21.1133L54.2591 20.7419L54.3195 21.5993L54.8182 21.5642ZM48.6796 35.9477L48.487 35.4863L48.4837 35.4877L48.6796 35.9477ZM43.382 58.9876L43.1584 59.4348L44.7232 60.2172L43.8082 58.726L43.382 58.9876ZM42.6843 58.6387L42.9079 58.1915L41.3722 57.4236L42.2556 58.896L42.6843 58.6387ZM44.1735 61.1207L44.6009 61.3802L44.7575 61.1222L44.6023 60.8634L44.1735 61.1207ZM39.9542 68.0701L39.4636 68.167L39.7131 69.4306L40.3816 68.3296L39.9542 68.0701ZM35.0638 53.0347L35.5183 52.8263L35.0638 53.0347ZM32.2601 33.3228L31.7959 33.1372L31.7688 33.2049L31.7622 33.2775L32.2601 33.3228ZM56.5831 94.3789V94.8789H57.1176L57.082 94.3457L56.5831 94.3789ZM52.612 90.9042L52.1159 90.8422L52.0407 91.4434L52.6453 91.4031L52.612 90.9042ZM13.149 94.3789L12.6517 94.3266L12.5936 94.8789H13.149V94.3789ZM19.3538 91.4005L19.2083 91.8788L19.9133 92.0934L19.8521 91.359L19.3538 91.4005ZM21.8358 88.174L21.8811 88.6719L22.2529 88.6381L22.3261 88.272L21.8358 88.174ZM28.0407 85.1956L27.7682 85.6148L28.2235 85.9108L28.4809 85.4327L28.0407 85.1956ZM33.0046 83.9547L32.7425 84.3805L33.1532 84.6332L33.4206 84.232L33.0046 83.9547ZM40.2022 84.203L39.7586 84.4336L40.0595 85.0121L40.5401 84.5715L40.2022 84.203ZM45.1661 84.9475L44.732 85.1955L44.9048 85.4979L45.2483 85.4407L45.1661 84.9475ZM49.0626 87.5091L49.561 87.47L49.0626 87.5091ZM49.1373 87.9258L48.7837 88.2793L48.9839 88.4795L49.2585 88.4108L49.1373 87.9258ZM32.7225 33.1124C35.3687 31.9987 38.8782 29.6813 40.8173 26.2844C41.792 24.5769 42.3708 22.5937 42.2345 20.3636C42.0984 18.1352 41.2505 15.6952 39.4281 13.0683L38.6065 13.6383C40.3454 16.145 41.1135 18.4121 41.2364 20.4246C41.3592 22.4355 40.8402 24.2271 39.9488 25.7887C38.1556 28.9301 34.8594 31.1281 32.3346 32.1907L32.7225 33.1124ZM39.426 13.0652C38.4745 11.7154 37.3285 7.38438 41.657 1.72462L40.8627 1.11713C36.3208 7.05591 37.3592 11.8689 38.6087 13.6414L39.426 13.0652ZM41.3075 0.923148C35.394 0.357225 28.5287 4.02194 24.9289 9.62029C23.12 12.4336 22.1196 15.7576 22.4892 19.3059C22.859 22.8565 24.5954 26.5832 28.1748 30.209L28.8865 29.5065C25.4377 26.013 23.8262 22.489 23.4838 19.2023C23.1413 15.9134 24.0645 12.8136 25.77 10.1611C29.1992 4.828 35.7267 1.39363 41.2122 1.9186L41.3075 0.923148ZM27.8078 30.0423L28.2978 30.3002L28.7635 29.4153L28.2736 29.1574L27.8078 30.0423ZM29.9459 31.5563L28.4567 29.3225L27.6247 29.8772L29.1138 32.111L29.9459 31.5563ZM31.8726 50.0594C31.2426 48.2396 30.7197 46.728 30.3824 44.1628C30.0434 41.5837 29.8914 37.93 30.0297 31.845L29.03 31.8223C28.8913 37.9241 29.0419 41.6379 29.391 44.2931C29.7419 46.9623 30.2925 48.552 30.9277 50.3866L31.8726 50.0594ZM35.2387 66.2762C34.1372 56.6108 32.8857 52.9857 31.8726 50.0594L30.9277 50.3866C31.9191 53.2503 33.1527 56.8037 34.2452 66.3894L35.2387 66.2762ZM26.0053 57.9935C30.6379 62.1298 33.4874 65.4676 34.3387 66.6285L35.1452 66.0371C34.2422 64.8058 31.3411 61.417 26.6713 57.2476L26.0053 57.9935ZM26.8349 57.6784C27.1696 54.8055 26.888 50.6603 24.9098 47.3348C23.9155 45.6633 22.4909 44.1977 20.5061 43.2174C18.5228 42.2379 16.0105 41.7578 12.8619 42.0077L12.941 43.0045C15.9456 42.7661 18.2712 43.2289 20.0633 44.114C21.8538 44.9984 23.142 46.3191 24.0504 47.8461C25.8776 50.9176 26.1613 54.8179 25.8416 57.5627L26.8349 57.6784ZM12.8581 42.008C11.2129 42.151 6.89349 40.9619 4.18057 34.3734L3.25589 34.7542C6.10255 41.6675 10.7843 43.1921 12.9448 43.0042L12.8581 42.008ZM3.31208 34.2722C-0.29196 39.2917 -0.460685 47.5093 2.97363 53.5193C4.70053 56.5413 7.3496 59.0275 10.9542 60.2707C14.5578 61.5135 19.0655 61.4967 24.4824 59.6072L24.1531 58.663C18.898 60.4961 14.626 60.4792 11.2803 59.3253C7.93554 58.1718 5.46561 55.8647 3.84187 53.0232C0.574935 47.3061 0.778445 39.5154 4.12438 34.8554L3.31208 34.2722ZM24.5827 59.5592L24.9946 59.3018L24.4648 58.4537L24.0528 58.7111L24.5827 59.5592ZM35.4692 72.6422C33.1641 64.9581 27.7935 60.1603 24.99 58.4508L24.4694 59.3046C27.1111 60.9155 32.292 65.5313 34.5114 72.9295L35.4692 72.6422ZM35.2416 79.0108L35.4899 72.8058L34.4907 72.7659L34.2424 78.9708L35.2416 79.0108ZM34.9903 78.4908H34.742V79.4908H34.9903V78.4908ZM40.3883 79.2392C39.8444 78.2874 38.6671 78.0648 37.6718 78.0627C36.6304 78.0605 35.5358 78.2965 34.8411 78.5136L35.1394 79.4681C35.7685 79.2715 36.7587 79.0608 37.6697 79.0627C38.627 79.0647 39.2697 79.2972 39.5201 79.7353L40.3883 79.2392ZM39.9506 71.5449C39.9506 74.0987 39.622 77.8664 39.4569 79.4349L40.4514 79.5396C40.6173 77.9642 40.9506 74.1535 40.9506 71.5449H39.9506ZM47.2386 60.8339C46.0801 62.4889 44.3299 64.9964 42.8442 67.14C42.1015 68.2117 41.4244 69.1933 40.9202 69.9321C40.6683 70.3014 40.4586 70.6113 40.3054 70.842C40.1635 71.0555 40.0456 71.2368 40.0034 71.3213L40.8978 71.7685C40.8965 71.7711 40.9115 71.7441 40.9604 71.6674C41.0037 71.5995 41.0633 71.5083 41.1383 71.3953C41.2882 71.1698 41.4951 70.8638 41.7462 70.4957C42.2483 69.7599 42.9238 68.7807 43.6661 67.7096C45.1506 65.5677 46.8999 63.0617 48.0579 61.4074L47.2386 60.8339ZM47.0076 61.3594L47.4246 61.5679L47.8719 60.6735L47.4548 60.4649L47.0076 61.3594ZM47.3366 61.4009C54.0697 59.9495 58.8044 57.1264 61.8867 53.5704C64.9691 50.0142 66.3699 45.7585 66.4913 41.4954C66.7332 33.0041 61.8958 24.4009 55.0343 21.1133L54.6022 22.0151C61.0578 25.1082 65.724 33.3127 65.4917 41.467C65.376 45.5267 64.0452 49.5533 61.131 52.9154C58.2168 56.2775 53.6899 59.0084 47.1258 60.4234L47.3366 61.4009ZM54.3195 21.5993C54.953 30.6005 50.5791 34.6128 48.487 35.4863L48.8723 36.4091C51.4114 35.3489 55.9765 30.9006 55.317 21.5291L54.3195 21.5993ZM48.4837 35.4877C45.0851 36.9355 42.759 38.733 41.2635 40.7443C39.7653 42.7592 39.1224 44.9594 39.0449 47.1713C38.8907 51.568 40.9691 56.0114 42.9559 59.2491L43.8082 58.726C41.8488 55.5331 39.9007 51.3001 40.0442 47.2064C40.1155 45.1731 40.7026 43.1745 42.0659 41.341C43.4319 39.504 45.5989 37.8035 48.8756 36.4077L48.4837 35.4877ZM42.4607 59.0859L43.1584 59.4348L43.6056 58.5403L42.9079 58.1915L42.4607 59.0859ZM44.6023 60.8634L43.1131 58.3815L42.2556 58.896L43.7448 61.3779L44.6023 60.8634ZM40.3816 68.3296L44.6009 61.3802L43.7461 60.8612L39.5268 67.8106L40.3816 68.3296ZM34.6092 53.243C36.1373 56.5774 37.961 60.5548 39.4636 68.167L40.4447 67.9733C38.9206 60.2525 37.062 56.1948 35.5183 52.8263L34.6092 53.243ZM31.7622 33.2775C31.2442 38.9744 31.3815 42.7295 31.9428 45.6903C32.5049 48.655 33.4883 50.7971 34.6092 53.243L35.5183 52.8263C34.3961 50.3777 33.4621 48.3357 32.9253 45.504C32.3877 42.6685 32.2447 39.0149 32.7581 33.3681L31.7622 33.2775ZM32.0643 32.4659L31.7959 33.1372L32.7244 33.5084L32.9928 32.8371L32.0643 32.4659ZM57.082 94.3457C57.0353 93.6453 56.76 92.6197 56.0689 91.7832C55.3577 90.9226 54.2305 90.2952 52.5787 90.4053L52.6453 91.4031C53.9718 91.3146 54.7889 91.8041 55.298 92.4202C55.8271 93.0605 56.0482 93.8715 56.0842 94.4122L57.082 94.3457ZM13.149 94.8789H56.5831V93.8789H13.149V94.8789ZM19.4994 90.9222C18.4956 90.6166 16.9414 90.3965 15.5549 90.7755C14.8531 90.9674 14.1766 91.3179 13.647 91.9059C13.1146 92.4967 12.7604 93.2942 12.6517 94.3266L13.6462 94.4313C13.7361 93.5773 14.0189 92.987 14.3899 92.5752C14.7635 92.1605 15.2567 91.8937 15.8186 91.7401C16.9595 91.4283 18.3093 91.6052 19.2083 91.8788L19.4994 90.9222ZM21.7905 87.676C21.2465 87.7255 20.4647 87.9715 19.8371 88.56C19.1889 89.1678 18.7442 90.1058 18.8556 91.442L19.8521 91.359C19.7649 90.3126 20.1062 89.6786 20.5211 89.2895C20.9566 88.8811 21.515 88.7052 21.8811 88.6719L21.7905 87.676ZM28.3132 84.7764C27.4299 84.2023 25.9891 83.6337 24.5864 83.9309C23.87 84.0826 23.1809 84.4581 22.6081 85.1422C22.0407 85.8199 21.605 86.7787 21.3455 88.0759L22.3261 88.272C22.563 87.0873 22.9443 86.2984 23.3748 85.7842C23.7999 85.2765 24.2898 85.0159 24.7937 84.9091C25.8316 84.6892 26.9968 85.1134 27.7682 85.6148L28.3132 84.7764ZM33.2666 83.5288C32.6646 83.1583 31.6671 82.7802 30.6029 82.8604C29.5013 82.9434 28.3768 83.5168 27.6004 84.9586L28.4809 85.4327C29.0945 84.2932 29.9142 83.9152 30.6781 83.8576C31.4796 83.7971 32.2691 84.0891 32.7425 84.3805L33.2666 83.5288ZM40.6459 83.9723C40.0854 82.8946 38.9982 81.4979 37.5416 81.0393C36.7899 80.8026 35.9576 80.823 35.0986 81.243C34.253 81.6565 33.4125 82.4414 32.5886 83.6773L33.4206 84.232C34.1851 83.0853 34.9041 82.4513 35.5379 82.1414C36.1582 81.838 36.7251 81.8306 37.2413 81.9931C38.3204 82.3329 39.2435 83.443 39.7586 84.4336L40.6459 83.9723ZM45.6003 84.6994C45.2331 84.0569 44.5085 83.2203 43.5011 82.8522C42.4409 82.4649 41.1731 82.6348 39.8644 83.8344L40.5401 84.5715C41.6141 83.5871 42.4973 83.5501 43.1579 83.7915C43.8714 84.0521 44.4373 84.6799 44.732 85.1955L45.6003 84.6994ZM49.561 87.47C49.5247 87.0065 49.4625 86.0499 48.834 85.3138C48.167 84.5326 47.0005 84.1348 45.084 84.4543L45.2483 85.4407C46.9794 85.1522 47.7232 85.5528 48.0735 85.9632C48.4624 86.4186 48.5247 87.0469 48.5641 87.5482L49.561 87.47ZM49.4908 87.5722C49.53 87.6114 49.5526 87.6489 49.5644 87.6713C49.5765 87.6943 49.5825 87.7117 49.5847 87.7187C49.5887 87.7311 49.5872 87.7305 49.5835 87.7065C49.5802 87.6848 49.5768 87.6548 49.5729 87.6131C49.569 87.5716 49.5654 87.5251 49.561 87.47L48.5641 87.5482C48.5721 87.6497 48.5807 87.7634 48.5949 87.8568C48.6021 87.9042 48.6133 87.9643 48.6328 88.0252C48.6494 88.0768 48.6889 88.1845 48.7837 88.2793L49.4908 87.5722ZM53.1081 90.9662C53.1988 90.2413 53.1298 89.15 52.5327 88.3271C52.2249 87.9028 51.7823 87.5601 51.1804 87.389C50.5862 87.2201 49.8691 87.2274 49.016 87.4407L49.2585 88.4108C49.9939 88.227 50.5261 88.2426 50.907 88.3509C51.2803 88.457 51.5389 88.6602 51.7233 88.9144C52.1108 89.4483 52.1907 90.2433 52.1159 90.8422L53.1081 90.9662ZM24.3178 59.6351H24.3184V58.6351H24.3178V59.6351Z" fill="#6E9F84"/>
</svg>
